<?xml version="1.0" encoding="UTF-8"?>
<svg width="800" height="800" viewBox="0 0 800 800" fill="none" xmlns="http://www.w3.org/2000/svg">
  <!-- Background Grid -->
  <path d="M0 0h800v800H0z" fill="#F8FAFC"/>
  <path d="M100 100h600v600H100z" fill="#EFF6FF" stroke="#BFDBFE" stroke-width="2"/>
  <path d="M100 300h600M100 500h600M300 100v600M500 100v600" stroke="#BFDBFE" stroke-width="1"/>
  
  <!-- Dashboard Elements -->
  <!-- Main Chart -->
  <path d="M150 450c50-80 100-40 150-60s100-120 150-80 100 60 150 40" stroke="#3B82F6" stroke-width="4" stroke-linecap="round"/>
  <circle cx="150" cy="450" r="4" fill="#3B82F6"/>
  <circle cx="300" cy="390" r="4" fill="#3B82F6"/>
  <circle cx="450" cy="310" r="4" fill="#3B82F6"/>
  <circle cx="600" cy="350" r="4" fill="#3B82F6"/>
  
  <!-- Stats Cards -->
  <rect x="150" y="150" width="120" height="80" rx="8" fill="white" stroke="#E2E8F0" stroke-width="2"/>
  <path d="M170 180l20-15 20 10 20-5" stroke="#10B981" stroke-width="2" stroke-linecap="round"/>
  <text x="170" y="205" font-family="Arial" font-size="12" fill="#64748B">Performance</text>
  
  <rect x="300" y="150" width="120" height="80" rx="8" fill="white" stroke="#E2E8F0" stroke-width="2"/>
  <circle cx="360" cy="190" r="15" fill="none" stroke="#8B5CF6" stroke-width="2"/>
  <path d="M360 175v15h15" stroke="#8B5CF6" stroke-width="2" stroke-linecap="round"/>
  <text x="320" y="205" font-family="Arial" font-size="12" fill="#64748B">Time Saved</text>
  
  <!-- Side Menu -->
  <rect x="150" y="550" width="450" height="60" rx="8" fill="white" stroke="#E2E8F0" stroke-width="2"/>
  <circle cx="180" cy="580" r="15" fill="#BFDBFE"/>
  <circle cx="240" cy="580" r="15" fill="#93C5FD"/>
  <circle cx="300" cy="580" r="15" fill="#60A5FA"/>
  
  <!-- Decorative Elements -->
  <circle cx="650" cy="200" r="30" fill="#EFF6FF" stroke="#BFDBFE" stroke-width="2"/>
  <path d="M635 200l10 10 20-20" stroke="#3B82F6" stroke-width="3" stroke-linecap="round"/>
  
  <circle cx="650" cy="550" r="30" fill="#EFF6FF" stroke="#BFDBFE" stroke-width="2"/>
  <path d="M635 550h30M650 535v30" stroke="#3B82F6" stroke-width="3" stroke-linecap="round"/>
  
  <!-- AI Elements -->
  <path d="M450 550c-30-30 30-30 0-60s-30 30-60 0 30-30 0-60" stroke="#8B5CF6" stroke-width="3" stroke-linecap="round" stroke-dasharray="4 4"/>
  
  <!-- Data Points -->
  <circle cx="200" cy="400" r="6" fill="#3B82F6" opacity="0.3"/>
  <circle cx="350" cy="450" r="6" fill="#3B82F6" opacity="0.3"/>
  <circle cx="500" cy="350" r="6" fill="#3B82F6" opacity="0.3"/>
  <circle cx="400" cy="300" r="6" fill="#3B82F6" opacity="0.3"/>
</svg> 